<?xml version="1.0" encoding="UTF-8"?>
<svg width="28px" height="20px" viewBox="0 0 28 20" version="1.1" xmlns="http://www.w3.org/2000/svg" xmlns:xlink="http://www.w3.org/1999/xlink">
    <!-- Generator: Sketch 41.2 (35397) - http://www.bohemiancoding.com/sketch -->
    <title>hamburger</title>
    <desc>Created with Sketch.</desc>
    <defs></defs>
    <g id="Symbols" stroke="none" stroke-width="1" fill="none" fill-rule="evenodd">
        <g id="Mobile/Header" transform="translate(-272.000000, -34.000000)" fill="#FFFFFF">
            <g id="Icon">
                <g transform="translate(272.000000, 34.000000)">
                    <path d="M27.125,9 L0.875,9 C0.391125,9 0,9.447 0,10 C0,10.553 0.391125,11 0.875,11 L27.125,11 C27.608875,11 28,10.553 28,10 C28,9.447 27.608875,9 27.125,9 L27.125,9 Z M0.875,2 L27.125,2 C27.608875,2 28,1.553 28,1 C28,0.447 27.608875,0 27.125,0 L0.875,0 C0.391125,0 0,0.447 0,1 C0,1.553 0.391125,2 0.875,2 L0.875,2 Z M27.125,18 L0.875,18 C0.391125,18 0,18.447 0,19 C0,19.553 0.391125,20 0.875,20 L27.125,20 C27.608875,20 28,19.553 28,19 C28,18.447 27.608875,18 27.125,18 L27.125,18 Z" id="hamburger"></path>
                </g>
            </g>
        </g>
    </g>
</svg>